<?xml version="1.0" encoding="UTF-8"?>
<svg viewBox="0 0 127.99985 174.03444" xmlns="http://www.w3.org/2000/svg" xmlns:xlink="http://www.w3.org/1999/xlink">
 <defs>
  <linearGradient id="c">
   <stop stop-color="#9f6a15" offset="0"/>
   <stop stop-color="#9f6a15" stop-opacity="0" offset="1"/>
  </linearGradient>
  <linearGradient id="a">
   <stop stop-color="#babdb6" offset="0"/>
   <stop stop-color="#888a85" offset="1"/>
  </linearGradient>
  <linearGradient id="u" x1="138.6" x2="184.38" y1="282.09" y2="370.36" gradientUnits="userSpaceOnUse">
   <stop stop-color="#e9b96e" offset="0"/>
   <stop stop-color="#8f5902" offset="1"/>
  </linearGradient>
  <linearGradient id="t" x2="0" y1="350.74" y2="383.44" gradientUnits="userSpaceOnUse">
   <stop stop-color="#e9b96e" offset="0"/>
   <stop stop-color="#e9b96e" stop-opacity="0" offset="1"/>
  </linearGradient>
  <linearGradient id="s" x1="212.85" x2="180.86" y1="362.96" y2="277.35" gradientUnits="userSpaceOnUse">
   <stop stop-color="#8f5902" offset="0"/>
   <stop stop-color="#8f5902" stop-opacity=".01953" offset="1"/>
  </linearGradient>
  <linearGradient id="k" x1="161.25" x2="139.75" y1="246.11" y2="241.11" gradientUnits="userSpaceOnUse">
   <stop stop-color="#945f08" offset="0"/>
   <stop stop-color="#e0b064" offset="1"/>
  </linearGradient>
  <linearGradient id="j" x1="148" x2="140.68" y1="386.36" y2="359.58" gradientUnits="userSpaceOnUse">
   <stop stop-color="#d3d7cf" offset="0"/>
   <stop stop-color="#d3d7cf" stop-opacity="0" offset="1"/>
  </linearGradient>
  <linearGradient id="e" x1="-571.95" x2="-567.93" y1="875.75" y2="888.67" gradientUnits="userSpaceOnUse">
   <stop stop-color="#f4f2f3" offset="0"/>
   <stop stop-color="#888a85" offset="1"/>
  </linearGradient>
  <linearGradient id="r" x1="248.91" x2="247.69" y1="313.45" y2="316.78" gradientUnits="userSpaceOnUse" xlink:href="#a"/>
  <linearGradient id="q" x1="253.09" x2="251.88" y1="320.23" y2="324.2" gradientUnits="userSpaceOnUse" xlink:href="#a"/>
  <linearGradient id="d" x1="205.9" x2="199.34" y1="288.65" y2="295.01" gradientUnits="userSpaceOnUse" xlink:href="#a"/>
  <linearGradient id="p" x1="241.32" x2="241.67" y1="276.77" y2="283.46" gradientUnits="userSpaceOnUse" xlink:href="#a"/>
  <linearGradient id="o" x1="231.92" x2="230.88" y1="313.15" y2="317.61" gradientUnits="userSpaceOnUse" xlink:href="#a"/>
  <linearGradient id="n" x1="195.14" x2="192.24" y1="299.15" y2="305.71" gradientUnits="userSpaceOnUse" xlink:href="#a"/>
  <linearGradient id="m" x1="120.56" x2="132.94" y1="257.97" y2="258.9" gradientUnits="userSpaceOnUse" xlink:href="#c"/>
  <linearGradient id="l" x1="187.17" x2="152.12" y1="253.52" y2="262.14" gradientUnits="userSpaceOnUse" xlink:href="#c"/>
  <linearGradient id="i" x1="249.07" x2="247.85" y1="316.57" y2="319.9" gradientUnits="userSpaceOnUse" xlink:href="#a"/>
  <linearGradient id="h" x1="254.01" x2="252.8" y1="325.11" y2="329.07" gradientUnits="userSpaceOnUse" xlink:href="#a"/>
  <linearGradient id="g" x1="241.36" x2="241.71" y1="278.46" y2="285.14" gradientUnits="userSpaceOnUse" xlink:href="#a"/>
  <linearGradient id="f" x1="231.95" x2="230.91" y1="317.21" y2="321.66" gradientUnits="userSpaceOnUse" xlink:href="#a"/>
  <radialGradient id="b" cx="164.42" cy="304.79" r="16.5" gradientTransform="matrix(1 2.4398e-7 -3.0313e-7 1.2424 9.2389e-5 -73.889)" gradientUnits="userSpaceOnUse">
   <stop stop-color="#ffffc0" offset="0"/>
   <stop stop-color="#ffffc0" stop-opacity="0" offset="1"/>
  </radialGradient>
 </defs>
 <g transform="translate(-88.676 -233.26)">
  <path d="m161.54 349.59s-58.423 1.2502-45.593 7.4489c10.059 4.8594 26.039 6.9694 15.699 9.527 0 0-100.21 34.687 10.247 40.09 86.727 5.6127 99.713-27.264 22.655-40.346 0.94005-5.307 29.894-17.2-3.0082-16.72z" fill="url(#j)"/>
  <path d="m161.54 234.62s-58.423 3.6761-45.593 21.903c10.059 14.289 26.039 20.493 15.699 28.014 0 0-100.21 102 10.247 117.88 86.727 16.504 99.713-80.168 22.655-118.63 0.94005-15.605 29.894-50.575-3.0082-49.165z" fill="url(#u)" stroke="#c17d11" stroke-width="2.632"/>
  <path d="m127.49 304.17c-15.171 0.31499-53.047 66.517-11.685 85.788-13.631-27.262 3.9102-74.047 11.685-85.788z" fill="url(#t)"/>
  <g transform="matrix(2.6171 0 0 2.6171 1649.5 -1941.9)">
   <path d="m-573.40316,889.81569v-3.461c-2.479-.035-5.043-.652-6.539-1.508l1.025-2.297c1.539.822 3.761,1.475 6.155,1.475 3.033,0 5.084-1.406 5.084-3.359 0-1.885-1.667-3.051-4.829-4.08-4.358-1.369-7.052-2.945-7.052-5.928 0-2.844 2.522-5.003 6.454-5.518v-3.461h2.649v3.324c2.565.068 4.316.617 5.557,1.199l-1.068,2.262c-.898-.41-2.65-1.166-5.387-1.166-3.29,0-4.528,1.58-4.528,2.949 0,1.781 1.58,2.672 5.299,3.906 4.401,1.439 6.625,3.221 6.625,6.273 0,2.705-2.351,5.242-6.753,5.824v3.564h-2.692z" fill="url(#e)"/>
  </g>
  <path d="m170 287.64c-0.25584 0.59623-0.47874 1.1612-0.65804 1.7274 34.702 30.636 42.357 70.802 30.763 98.541 23.558-24.934 14.963-73.198-30.105-100.27z" fill="url(#s)"/>
  <path d="m125.5 242.51c-1.5114 0.27199-6.129 2.9392-7.3674 3.7914-1.7855 1.4347-3.9271 3.3514-3.5713 5.893 0.48311 2.7715 2.5389 4.8906 4.2615 6.9891 3.816 4.2598 7.8006 8.3772 11.981 12.28 1.1134 1.0126 2.2976 2.1027 3.8607 2.2154 0.95761 1.2956 2.7074 0.91886 4.1299 0.88501 1.1464-0.21837 3.1743 0.40489 3.6792 0.35292-7.6274-10.443-25.066-24.088-16.974-32.407z" fill="url(#m)"/>
  <path d="m170.4 236.26-18.281 39c1.6876 0.23183 3.054-1.2057 4.9148-0.80234 1.6015-0.0916 3.3428 0.18237 4.818-0.57247 1.099-1.3962 3.1552-0.47213 4.3712-1.6669 2.0951-2.0371 3.0146-4.9239 4.2085-7.5208 2.2489-5.5606 4.7443-11.088 5.997-16.981 0.54223-2.9295 0.52358-6.2774-1.2796-8.7902-1.1712-1.4348-2.9827-2.2493-4.7487-2.6662z" fill="url(#l)"/>
  <path d="m166.88 234.95c-3.7806-0.058-7.6113-0.6782-11.348 0.18611-12.521 1.3312-22.823 2.0201-32.096 10.991-1.5778 10.35 19.408 7.6775 25.065 5.9702 5.3284-2.3439 16.258-5.1126 14.985-12.874-6.4312-4.4827-20.41 1.2327-27.216 3.0235" fill="url(#k)" stroke="#c17d11" stroke-width="2.62"/>
  <path transform="matrix(.71212 0 0 .71212 26.085 153.49)" d="m176.04 316.4c-0.46069 0.46069-9.904-7.9054-10.519-7.6902s-2.7819 12.644-3.4293 12.571 6e-3 -12.672-0.54602-13.019-11.62 5.7084-11.966 5.1567 9.911-7.8966 9.8381-8.544-11.708-5.5257-11.493-6.1406 12.353 2.8253 12.814 2.3646-2.9796-12.599-2.3646-12.814 5.4932 11.42 6.1406 11.493 7.9924-10.185 8.544-9.8381-5.5033 11.415-5.1567 11.966 12.946-0.10139 13.019 0.54603-12.356 2.8143-12.571 3.4293 8.1509 10.058 7.6902 10.519z" fill="url(#b)"/>
  <path d="m166.36428,275.59559c-.26251.15172-.47715.37422-.5625.65625l-.25.8125-2.5-.34375c-.5041-.0652-1.08156.26594-1.3125.71875l-4.3125,8.40625c-.23094.45281-.004.8723.5.9375l2.96875.40625c.5041.0652 1.11281-.26594 1.34375-.71875l1.125-2.1875-.28125.875c-.14487.47869.15612.875.65625.875h2.28125c.50013,0 1.01138-.39631 1.15625-.875l.3125-1c-.91296-.48611-1.84153-.96839-2.78125-1.4375 .12481-2.07189.75411-4.50083 1.65625-7.125zm-31.5625.9375c.92548,2.37997.26269,4.58736-2.96875,6.9375 0,0-1.38733,1.42445-3.4375,3.6875h2.84375c.4781,0 .99032-.32088 1.21875-.75l-.625,1.21875c-.24514.47869-.007.875.53125.875h5c.53781,0 1.16111-.39631 1.40625-.875l4.5625-8.90625c.24514-.47869.007-.875-.53125-.875h-5c-.53781,0-1.16111.39631-1.40625.875l-3.8125,7.46875 3.53125-8.8125c.1932-.47869-.0775-.84375-.59375-.84375h-.71875zm19.875,1.59375c-.53781,0-1.19236.36506-1.4375.84375l-4.5625,8.90625c-.24514.47869-.007.875.53125.875h5c.53781,0 1.16111-.39631 1.40625-.875l4.5625-8.90625c.24514-.47869.007-.84375-.53125-.84375h-4.96875zm-9.1875.5625c-.54832,0-1.20135.39631-1.46875.875l-4.96875,8.90625c-.2674.47869-.0483.84375.5.84375h5.59375c.54832,0 1.20135-.36506 1.46875-.84375l4.96875-8.90625c.2674-.47869.0483-.875-.5-.875h-5.59375z" fill="#2e3436" opacity=".30075" stroke="#2e3436" stroke-linejoin="round" stroke-width="1.5379"/>
  <path transform="matrix(1,0,-.45581,.89008,47.75,2)" d="m246.41782,307.47244h4.98237a.97078,.97078 0 0,1 .97078.97078v10.01155a.97078,.97078 0 0,1 -.97078.97078h-4.98237a.97078,.97078 0 0,1 -.97078-.97078v-10.01155a.97078,.97078 0 0,1 .97078-.97078" fill="url(#r)" stroke="#888a85" stroke-linejoin="round" stroke-width="1.6301"/>
  <path transform="matrix(1,0,-.48767,.87303,47.75,2)" d="m250.30422,314.13644h5.57315a.98974,.98974 0 0,1 .98974.98974v10.20709a.98974,.98974 0 0,1 -.98974.98974h-5.57315a.98974,.98974 0 0,1 -.98974-.98974v-10.20709a.98974,.98974 0 0,1 .98974-.98974" fill="url(#q)" stroke="#888a85" stroke-linejoin="round" stroke-width="1.6459"/>
  <path transform="matrix(1,0,-.28966,.95713,47.75,2)" d="m200.55888,283.09302h2.28626a.90277,.90277 0 0,1 .90277.90277v9.31019a.90277,.90277 0 0,1 -.90277.90277h-2.28626a.90277,.90277 0 0,1 -.90277-.90277v-9.31019a.90277,.90277 0 0,1 .90277-.90277" fill="url(#d)" stroke="#888a85" stroke-linejoin="round" stroke-width="1.5719"/>
  <path transform="matrix(.99174,.12828,-.45433,.89083,47.75,2)" d="m239.82683,271.12296h2.99325a.91751,.91751 0 0,1 .91751.91751v9.4622a.91751,.91751 0 0,1 -.91751.91751h-2.99325a.91751,.91751 0 0,1 -.91751-.91751v-9.4622a.91751,.91751 0 0,1 .91751-.91751" fill="url(#p)" stroke="#888a85" stroke-linejoin="round" stroke-width="1.5847"/>
  <path transform="matrix(1,0,-.45581,.89008,47.75,2)" d="m229.4328,307.17606h4.98237a.97078,.97078 0 0,1 .97078.97078v10.01155a.97078,.97078 0 0,1 -.97078.97078h-4.98237a.97078,.97078 0 0,1 -.97078-.97078v-10.01155a.97078,.97078 0 0,1 .97078-.97078" fill="url(#o)" stroke="#888a85" stroke-linejoin="round" stroke-width="1.6301"/>
  <path transform="matrix(1,0,-.37427,.92732,47.75,2)" d="m193.34424,293.4111h3.59338a.93179,.93179 0 0,1 .93179.93179v9.60947a.93179,.93179 0 0,1 -.93179.93179h-3.59338a.93179,.93179 0 0,1 -.93179-.93179v-9.60947a.93179,.93179 0 0,1 .93179-.93179" fill="url(#n)" stroke="#888a85" stroke-linejoin="round" stroke-width="1.597"/>
  <path d="m168.0884,288.86841c-.043.37778.18448.80721.52582.97472l6.34801,3.12808c.34133.16753.64545.008.68844-.36932l.26305-2.22779c.043-.37778-.19096-.83777-.53226-1.00531l-2.66832-1.28778 .54094.14103c.35969.10284.63771-.1111.63196-.48516l-5.79764,1.13153zm2.19168,2.50668c-.11571.0733-.17.21753-.16691.41865l.0541,3.72583c.006.40226.30664.86271.66749,1.04057l6.7055,3.30793c.36086.17785.65756.009.65139-.39344l-.0541-3.72584c-.006-.40226-.30665-.86271-.66748-1.04056l-6.71199-3.3385c-.18042-.0889-.36229-.0679-.47798.005l-2e-005-5e-005zm1.63611,6.52129c-.11576.0703-.17005.2136-.16691.41865l.053,4.17326c.006.41011.31935.90721.68043,1.10172l6.70908,3.6266c.36111.19449.65769.0167.65139-.39344l-.053-4.17327c-.006-.41011-.31935-.90721-.68043-1.10171l-6.70909-3.62661c-.18056-.0972-.36871-.0955-.48448-.0252zm-.81036,6.43231c-.23224-.005-.38554.16228-.38091.46395l.0606,3.75641c.006.40226.30664.86271.66748,1.04056l6.70551,3.30794c.36085.17784.6511-.0218.64491-.42402l-.0541-3.72584c-.006-.40225-.30664-.86271-.66749-1.04055l-6.7055-3.30795c-.0901-.0445-.19306-.0687-.27048-.0705z" fill="#2e3436" opacity=".36466" stroke="#2e3436" stroke-linejoin="round" stroke-width="1.5379"/>
  <path transform="matrix(.14367 -.7341 .58792 .46249 -51.284 325.63)" d="m246.57637,310.59085h4.98237a.97078,.97078 0 0,1 .97078.97078v10.01155a.97078,.97078 0 0,1 -.97078.97078h-4.98237a.97078,.97078 0 0,1 -.97078-.97078v-10.01155a.97078,.97078 0 0,1 .97078-.97078" fill="url(#i)" stroke="#888a85" stroke-linejoin="round" stroke-width="2.1792"/>
  <path transform="matrix(.14367 -.7341 .57083 .48343 -51.284 325.63)" d="m251.22836,319.01367h5.57315a.98974,.98974 0 0,1 .98974.98974v10.20709a.98974,.98974 0 0,1 -.98974.98974h-5.57315a.98974,.98974 0 0,1 -.98974-.98974v-10.20709a.98974,.98974 0 0,1 .98974-.98974" fill="url(#h)" stroke="#888a85" stroke-linejoin="round" stroke-width="2.2003"/>
  <path transform="matrix(.14367 -.7341 .66101 .35015 -51.284 325.63)" d="m200.55888,283.09302h2.28626a.90277,.90277 0 0,1 .90277.90277v9.31019a.90277,.90277 0 0,1 -.90277.90277h-2.28626a.90277,.90277 0 0,1 -.90277-.90277v-9.31019a.90277,.90277 0 0,1 .90277-.90277" fill="url(#d)" stroke="#888a85" stroke-linejoin="round" stroke-width="2.1014"/>
  <path transform="matrix(.23665 -.7096 .58869 .46151 -51.284 325.63)" d="m239.86478,272.8064h2.99325a.91751,.91751 0 0,1 .91751.91751v9.4622a.91751,.91751 0 0,1 -.91751.91751h-2.99325a.91751,.91751 0 0,1 -.91751-.91751v-9.4622a.91751,.91751 0 0,1 .91751-.91751" fill="url(#g)" stroke="#888a85" stroke-linejoin="round" stroke-width="2.1185"/>
  <path transform="matrix(.14367 -.7341 .58792 .46249 -51.284 325.63)" d="m229.45778,311.22916h4.98237a.97078,.97078 0 0,1 .97078.97078v10.01155a.97078,.97078 0 0,1 -.97078.97078h-4.98237a.97078,.97078 0 0,1 -.97078-.97078v-10.01155a.97078,.97078 0 0,1 .97078-.97078" fill="url(#f)" stroke="#888a85" stroke-linejoin="round" stroke-width="2.1792"/>
  <path transform="translate(9.8232 16.248)" d="m176.04 316.4c-0.46069 0.46069-9.904-7.9054-10.519-7.6902s-2.7819 12.644-3.4293 12.571 6e-3 -12.672-0.54602-13.019-11.62 5.7084-11.966 5.1567 9.911-7.8966 9.8381-8.544-11.708-5.5257-11.493-6.1406 12.353 2.8253 12.814 2.3646-2.9796-12.599-2.3646-12.814 5.4932 11.42 6.1406 11.493 7.9924-10.185 8.544-9.8381-5.5033 11.415-5.1567 11.966 12.946-0.10139 13.019 0.54603-12.356 2.8143-12.571 3.4293 8.1509 10.058 7.6902 10.519z" fill="url(#b)"/>
 </g>
</svg>
